<?xml version="1.0" encoding="iso-8859-1"?>
<!-- Generator: Adobe Illustrator 24.1.2, SVG Export Plug-In . SVG Version: 6.00 Build 0)  -->
<svg version="1.1" id="Layer_1" xmlns="http://www.w3.org/2000/svg" xmlns:xlink="http://www.w3.org/1999/xlink" x="0px" y="0px"
	 viewBox="0 0 50 50" style="enable-background:new 0 0 50 50;" xml:space="preserve">
<path style="fill:none;stroke:#000000;stroke-width:2;stroke-miterlimit:10;" d="M41,45H9c-2.209,0-4-1.791-4-4V9
	c0-2.209,1.791-4,4-4h32c2.209,0,4,1.791,4,4v32C45,43.209,43.209,45,41,45z"/>
<g>
	<path style="fill:none;stroke:#000000;stroke-width:2;stroke-miterlimit:10;" d="M20,22h5c1.1,0,2-0.9,2-2s-0.9-2-2-2h-5
		c-1.1,0-2,0.9-2,2S18.9,22,20,22z"/>
	<path style="fill:none;stroke:#000000;stroke-width:2;stroke-miterlimit:10;" d="M30,28H20c-1.1,0-2,0.9-2,2s0.9,2,2,2h10
		c1.1,0,2-0.9,2-2S31.1,28,30,28z"/>
</g>
<path style="fill:none;stroke:#000000;stroke-width:2;stroke-miterlimit:10;" d="M36,22h-1c-1.105,0-2-0.895-2-2c0-4.4-3.6-8-8-8h-5
	c-4.4,0-8,3.6-8,8v5v5c0,4.4,3.6,8,8,8h10c4.4,0,8-3.6,8-8v-6C38,22.895,37.105,22,36,22z"/>
</svg>